# xmcd CD database file
#
# Track frame offsets:
#	150
#	73361
#	96287
#	154537
#	209900
#	247029
#
# Disc length: 4163 seconds
#
# Revision: 2
# Processed by: cddbd v1.5.2PL0 Copyright (c) Steve Scherf et al.
# Submitted via: CDex 1.81
#
DISCID=5b104106
DTITLE=V.S.O.P. The Quintet - Tempest In The Colosseum
DYEAR=1977
DGENRE=Contemporary Jazz
TTITLE0=The Eye of the hurricane
TTITLE1=Diana
TTITLE2=Eighty-one
TTITLE3=Maiden voyage
TTITLE4=Lawra
TTITLE5=Red Clay
EXTD=V.S.O.P The Quintet: Herbie Hancock (piano), Wayne Shorter (tenor and soprano saxophone]\nFreddie Hubbard (trumpet), Ron Carter (bass), Tony Williams (drums]\n1977 YEAR: 1977
EXTT0=
EXTT1=
EXTT2=
EXTT3=
EXTT4=
EXTT5=
PLAYORDER=
